<svg width="181" height="97" viewBox="0 0 181 97" fill="none" xmlns="http://www.w3.org/2000/svg">
<path d="M22.56 85.312V90.56H2.72V85.312H22.56ZM35.9128 70.688H32.9688V84H27.4968V70.688H25.5128V66.144H27.4968V65.632C27.4968 63.4347 28.1261 61.7707 29.3848 60.64C30.6434 59.488 32.4888 58.912 34.9208 58.912C35.3261 58.912 35.6248 58.9227 35.8168 58.944V63.584C34.7714 63.52 34.0354 63.6693 33.6088 64.032C33.1821 64.3947 32.9688 65.0453 32.9688 65.984V66.144H35.9128V70.688ZM41.236 64.288C40.276 64.288 39.4867 64.0107 38.868 63.456C38.2707 62.88 37.972 62.176 37.972 61.344C37.972 60.4907 38.2707 59.7867 38.868 59.232C39.4867 58.656 40.276 58.368 41.236 58.368C42.1747 58.368 42.9427 58.656 43.54 59.232C44.1587 59.7867 44.468 60.4907 44.468 61.344C44.468 62.176 44.1587 62.88 43.54 63.456C42.9427 64.0107 42.1747 64.288 41.236 64.288ZM43.956 66.144V84H38.484V66.144H43.956ZM53.3935 60.32V84H47.9215V60.32H53.3935ZM80.143 65.952C82.3617 65.952 84.1217 66.624 85.423 67.968C86.7457 69.312 87.407 71.1787 87.407 73.568V84H81.967V74.304C81.967 73.152 81.6577 72.2667 81.039 71.648C80.4417 71.008 79.6097 70.688 78.543 70.688C77.4763 70.688 76.6337 71.008 76.015 71.648C75.4177 72.2667 75.119 73.152 75.119 74.304V84H69.679V74.304C69.679 73.152 69.3697 72.2667 68.751 71.648C68.1537 71.008 67.3217 70.688 66.255 70.688C65.1883 70.688 64.3457 71.008 63.727 71.648C63.1297 72.2667 62.831 73.152 62.831 74.304V84H57.359V66.144H62.831V68.384C63.3857 67.6373 64.111 67.0507 65.007 66.624C65.903 66.176 66.9163 65.952 68.047 65.952C69.391 65.952 70.5857 66.24 71.631 66.816C72.6977 67.392 73.5297 68.2133 74.127 69.28C74.7457 68.2987 75.5883 67.4987 76.655 66.88C77.7217 66.2613 78.8843 65.952 80.143 65.952ZM96.706 68.672C97.218 67.84 97.954 67.168 98.914 66.656C99.874 66.144 100.973 65.888 102.21 65.888C103.682 65.888 105.015 66.2613 106.21 67.008C107.405 67.7547 108.343 68.8213 109.026 70.208C109.73 71.5947 110.082 73.2053 110.082 75.04C110.082 76.8747 109.73 78.496 109.026 79.904C108.343 81.2907 107.405 82.368 106.21 83.136C105.015 83.8827 103.682 84.256 102.21 84.256C100.951 84.256 99.8527 84.0107 98.914 83.52C97.9753 83.008 97.2393 82.336 96.706 81.504V84H91.234V60.32H96.706V68.672ZM104.514 75.04C104.514 73.6747 104.13 72.608 103.362 71.84C102.615 71.0507 101.687 70.656 100.578 70.656C99.49 70.656 98.562 71.0507 97.794 71.84C97.0473 72.6293 96.674 73.7067 96.674 75.072C96.674 76.4373 97.0473 77.5147 97.794 78.304C98.562 79.0933 99.49 79.488 100.578 79.488C101.666 79.488 102.594 79.0933 103.362 78.304C104.13 77.4933 104.514 76.4053 104.514 75.04ZM121.081 84.256C119.331 84.256 117.753 83.8827 116.345 83.136C114.958 82.3893 113.859 81.3227 113.049 79.936C112.259 78.5493 111.865 76.928 111.865 75.072C111.865 73.2373 112.27 71.6267 113.081 70.24C113.891 68.832 115.001 67.7547 116.409 67.008C117.817 66.2613 119.395 65.888 121.145 65.888C122.894 65.888 124.473 66.2613 125.881 67.008C127.289 67.7547 128.398 68.832 129.209 70.24C130.019 71.6267 130.425 73.2373 130.425 75.072C130.425 76.9067 130.009 78.528 129.177 79.936C128.366 81.3227 127.246 82.3893 125.817 83.136C124.409 83.8827 122.83 84.256 121.081 84.256ZM121.081 79.52C122.126 79.52 123.011 79.136 123.737 78.368C124.483 77.6 124.857 76.5013 124.857 75.072C124.857 73.6427 124.494 72.544 123.769 71.776C123.065 71.008 122.19 70.624 121.145 70.624C120.078 70.624 119.193 71.008 118.489 71.776C117.785 72.5227 117.433 73.6213 117.433 75.072C117.433 76.5013 117.774 77.6 118.457 78.368C119.161 79.136 120.035 79.52 121.081 79.52ZM141.456 84.256C139.706 84.256 138.128 83.8827 136.72 83.136C135.333 82.3893 134.234 81.3227 133.424 79.936C132.634 78.5493 132.24 76.928 132.24 75.072C132.24 73.2373 132.645 71.6267 133.456 70.24C134.266 68.832 135.376 67.7547 136.784 67.008C138.192 66.2613 139.77 65.888 141.52 65.888C143.269 65.888 144.848 66.2613 146.256 67.008C147.664 67.7547 148.773 68.832 149.584 70.24C150.394 71.6267 150.8 73.2373 150.8 75.072C150.8 76.9067 150.384 78.528 149.552 79.936C148.741 81.3227 147.621 82.3893 146.192 83.136C144.784 83.8827 143.205 84.256 141.456 84.256ZM141.456 79.52C142.501 79.52 143.386 79.136 144.112 78.368C144.858 77.6 145.232 76.5013 145.232 75.072C145.232 73.6427 144.869 72.544 144.144 71.776C143.44 71.008 142.565 70.624 141.52 70.624C140.453 70.624 139.568 71.008 138.864 71.776C138.16 72.5227 137.808 73.6213 137.808 75.072C137.808 76.5013 138.149 77.6 138.832 78.368C139.536 79.136 140.41 79.52 141.456 79.52ZM164.615 84L159.175 76.512V84H153.703V60.32H159.175V73.408L164.583 66.144H171.335L163.911 75.104L171.399 84H164.615Z" fill="white"/>
<path d="M176.044 84.256C175.084 84.256 174.295 83.9787 173.676 83.424C173.079 82.848 172.78 82.144 172.78 81.312C172.78 80.4587 173.079 79.744 173.676 79.168C174.295 78.592 175.084 78.304 176.044 78.304C176.983 78.304 177.751 78.592 178.348 79.168C178.967 79.744 179.276 80.4587 179.276 81.312C179.276 82.144 178.967 82.848 178.348 83.424C177.751 83.9787 176.983 84.256 176.044 84.256Z" fill="#9E2525"/>
<path fill-rule="evenodd" clip-rule="evenodd" d="M96.63 15.2629C106.077 16.0933 113 18.7951 113 22C113 25.1937 106.125 27.8879 96.7283 28.7283C96.9052 26.7504 97 24.6608 97 22.5C97 19.9682 96.8699 17.5341 96.63 15.2629ZM83.2629 28.63C74.3869 27.6926 68 25.0783 68 22C68 18.9105 74.4334 16.2885 83.3598 15.3598C84.2884 6.43343 86.9105 0 90 0C93.0783 0 95.6926 6.38692 96.63 15.2629C94.6812 15.0917 92.625 15 90.5 15C88.0042 15 85.6033 15.1264 83.3598 15.3598C83.1264 17.6033 83 20.0042 83 22.5C83 24.625 83.0916 26.6812 83.2629 28.63ZM83.2629 28.63C85.5341 28.8699 87.9682 29 90.5 29C92.6608 29 94.7504 28.9052 96.7283 28.7283C95.8879 38.1251 93.1937 45 90 45C86.7951 45 84.0933 38.0771 83.2629 28.63Z" fill="white"/>
</svg>
