<svg width="140" height="140" viewBox="0 0 140 140" fill="none" xmlns="http://www.w3.org/2000/svg">
<path d="M31.4148 76.5427V79.5555H20.2V76.5427H31.4148Z" fill="white"/>
<path d="M38.9626 68.147H37.2984V75.7894H34.2053V68.147H33.0839V65.5383H34.2053V65.2443C34.2053 63.9828 34.5611 63.0275 35.2725 62.3784C35.984 61.7171 37.0271 61.3864 38.4018 61.3864C38.6309 61.3864 38.7998 61.3925 38.9083 61.4047V64.0686C38.3174 64.0318 37.9014 64.1176 37.6602 64.3258C37.419 64.534 37.2984 64.9075 37.2984 65.4464V65.5383H38.9626V68.147Z" fill="white"/>
<path d="M41.9716 64.4727C41.4289 64.4727 40.9827 64.3135 40.633 63.9951C40.2954 63.6644 40.1266 63.2602 40.1266 62.7826C40.1266 62.2927 40.2954 61.8885 40.633 61.5701C40.9827 61.2394 41.4289 61.0741 41.9716 61.0741C42.5022 61.0741 42.9363 61.2394 43.2739 61.5701C43.6236 61.8885 43.7985 62.2927 43.7985 62.7826C43.7985 63.2602 43.6236 63.6644 43.2739 63.9951C42.9363 64.3135 42.5022 64.4727 41.9716 64.4727ZM43.5091 65.5383V75.7894H40.416V65.5383H43.5091Z" fill="white"/>
<path d="M48.8437 62.1947V75.7894H45.7506V62.1947H48.8437Z" fill="white"/>
<path d="M63.9641 65.4281C65.2182 65.4281 66.2131 65.8138 66.9487 66.5854C67.6963 67.357 68.0702 68.4287 68.0702 69.8004V75.7894H64.9952V70.2229C64.9952 69.5616 64.8203 69.0533 64.4706 68.6981C64.1329 68.3307 63.6627 68.147 63.0597 68.147C62.4568 68.147 61.9804 68.3307 61.6307 68.6981C61.2931 69.0533 61.1243 69.5616 61.1243 70.2229V75.7894H58.0493V70.2229C58.0493 69.5616 57.8744 69.0533 57.5247 68.6981C57.187 68.3307 56.7167 68.147 56.1138 68.147C55.5109 68.147 55.0345 68.3307 54.6848 68.6981C54.3472 69.0533 54.1784 69.5616 54.1784 70.2229V75.7894H51.0853V65.5383H54.1784V66.8243C54.4919 66.3956 54.9019 66.0588 55.4084 65.8138C55.9148 65.5567 56.4876 65.4281 57.1267 65.4281C57.8865 65.4281 58.5618 65.5934 59.1526 65.9241C59.7556 66.2548 60.2259 66.7263 60.5635 67.3387C60.9132 66.7753 61.3896 66.316 61.9925 65.9608C62.5954 65.6056 63.2527 65.4281 63.9641 65.4281Z" fill="white"/>
<path d="M73.3265 66.9896C73.6159 66.512 74.032 66.1262 74.5746 65.8322C75.1173 65.5383 75.7383 65.3913 76.4377 65.3913C77.2698 65.3913 78.0234 65.6056 78.6987 66.0343C79.374 66.463 79.9046 67.0753 80.2905 67.8714C80.6885 68.6675 80.8874 69.5922 80.8874 70.6455C80.8874 71.6988 80.6885 72.6296 80.2905 73.4379C79.9046 74.234 79.374 74.8525 78.6987 75.2934C78.0234 75.7221 77.2698 75.9364 76.4377 75.9364C75.7262 75.9364 75.1052 75.7956 74.5746 75.5139C74.044 75.2199 73.628 74.8341 73.3265 74.3565V75.7894H70.2334V62.1947H73.3265V66.9896ZM77.7401 70.6455C77.7401 69.8616 77.523 69.2493 77.0889 68.8084C76.6668 68.3552 76.1423 68.1286 75.5152 68.1286C74.9002 68.1286 74.3756 68.3552 73.9415 68.8084C73.5195 69.2615 73.3084 69.88 73.3084 70.6639C73.3084 71.4477 73.5195 72.0662 73.9415 72.5194C74.3756 72.9725 74.9002 73.1991 75.5152 73.1991C76.1302 73.1991 76.6548 72.9725 77.0889 72.5194C77.523 72.0539 77.7401 71.4293 77.7401 70.6455Z" fill="white"/>
<path d="M87.1046 75.9364C86.1157 75.9364 85.2234 75.7221 84.4275 75.2934C83.6437 74.8647 83.0226 74.2524 82.5644 73.4563C82.1182 72.6602 81.8951 71.7294 81.8951 70.6639C81.8951 69.6106 82.1243 68.6859 82.5825 67.8898C83.0407 67.0815 83.6678 66.463 84.4637 66.0343C85.2596 65.6056 86.1519 65.3913 87.1408 65.3913C88.1296 65.3913 89.0219 65.6056 89.8178 66.0343C90.6137 66.463 91.2408 67.0815 91.699 67.8898C92.1572 68.6859 92.3864 69.6106 92.3864 70.6639C92.3864 71.7171 92.1512 72.648 91.6809 73.4563C91.2227 74.2524 90.5896 74.8647 89.7816 75.2934C88.9858 75.7221 88.0934 75.9364 87.1046 75.9364ZM87.1046 73.2175C87.6955 73.2175 88.1959 72.997 88.6059 72.5561C89.028 72.1152 89.239 71.4844 89.239 70.6639C89.239 69.8433 89.034 69.2125 88.624 68.7716C88.2261 68.3307 87.7316 68.1103 87.1408 68.1103C86.5378 68.1103 86.0374 68.3307 85.6394 68.7716C85.2415 69.2003 85.0425 69.831 85.0425 70.6639C85.0425 71.4844 85.2355 72.1152 85.6213 72.5561C86.0193 72.997 86.5137 73.2175 87.1046 73.2175Z" fill="white"/>
<path d="M98.6217 75.9364C97.6329 75.9364 96.7406 75.7221 95.9447 75.2934C95.1608 74.8647 94.5398 74.2524 94.0816 73.4563C93.6354 72.6602 93.4123 71.7294 93.4123 70.6639C93.4123 69.6106 93.6414 68.6859 94.0997 67.8898C94.5579 67.0815 95.185 66.463 95.9808 66.0343C96.7767 65.6056 97.6691 65.3913 98.6579 65.3913C99.6467 65.3913 100.539 65.6056 101.335 66.0343C102.131 66.463 102.758 67.0815 103.216 67.8898C103.674 68.6859 103.904 69.6106 103.904 70.6639C103.904 71.7171 103.668 72.648 103.198 73.4563C102.74 74.2524 102.107 74.8647 101.299 75.2934C100.503 75.7221 99.6106 75.9364 98.6217 75.9364ZM98.6217 73.2175C99.2126 73.2175 99.7131 72.997 100.123 72.5561C100.545 72.1152 100.756 71.4844 100.756 70.6639C100.756 69.8433 100.551 69.2125 100.141 68.7716C99.7432 68.3307 99.2488 68.1103 98.6579 68.1103C98.055 68.1103 97.5545 68.3307 97.1566 68.7716C96.7586 69.2003 96.5597 69.831 96.5597 70.6639C96.5597 71.4844 96.7526 72.1152 97.1385 72.5561C97.5364 72.997 98.0309 73.2175 98.6217 73.2175Z" fill="white"/>
<path d="M111.713 75.7894L108.638 71.4906V75.7894H105.544V62.1947H108.638V69.7086L111.694 65.5383H115.511L111.315 70.6822L115.547 75.7894H111.713Z" fill="white"/>
<path d="M118.173 75.9364C117.63 75.9364 117.184 75.7772 116.835 75.4588C116.497 75.1281 116.328 74.7239 116.328 74.2463C116.328 73.7564 116.497 73.3461 116.835 73.0154C117.184 72.6847 117.63 72.5194 118.173 72.5194C118.704 72.5194 119.138 72.6847 119.475 73.0154C119.825 73.3461 120 73.7564 120 74.2463C120 74.7239 119.825 75.1281 119.475 75.4588C119.138 75.7772 118.704 75.9364 118.173 75.9364Z" fill="#9E2525"/>
</svg>
