<svg width="45" height="45" viewBox="0 0 45 45" fill="none" xmlns="http://www.w3.org/2000/svg">
<path fill-rule="evenodd" clip-rule="evenodd" d="M28.63 15.2629C38.0772 16.0933 45 18.7951 45 22C45 25.1937 38.1251 27.8879 28.7283 28.7283C28.9052 26.7504 29 24.6608 29 22.5C29 19.9682 28.8699 17.5341 28.63 15.2629ZM15.2629 28.63C6.38692 27.6926 0 25.0783 0 22C0 18.9105 6.43343 16.2885 15.3598 15.3598C16.2884 6.43343 18.9105 0 22 0C25.0783 0 27.6926 6.38692 28.63 15.2629C26.6812 15.0917 24.625 15 22.5 15C20.0042 15 17.6033 15.1264 15.3598 15.3598C15.1264 17.6033 15 20.0042 15 22.5C15 24.625 15.0916 26.6812 15.2629 28.63ZM15.2629 28.63C17.5341 28.8699 19.9682 29 22.5 29C24.6608 29 26.7504 28.9052 28.7283 28.7283C27.8879 38.1251 25.1937 45 22 45C18.7951 45 16.0933 38.0771 15.2629 28.63Z" fill="white"/>
</svg>
